<mxfile host="app.diagrams.net" agent="Mozilla/5.0 (Windows NT 10.0; Win64; x64) AppleWebKit/537.36 (KHTML, like Gecko) Chrome/141.0.0.0 Safari/537.36" version="28.2.5">
  <diagram name="Страница — 1" id="8yLVq73asvVZZogECOvb">
    <mxGraphModel dx="2194" dy="1195" grid="1" gridSize="10" guides="1" tooltips="1" connect="1" arrows="1" fold="1" page="1" pageScale="1" pageWidth="827" pageHeight="1169" math="0" shadow="0">
      <root>
        <mxCell id="0" />
        <mxCell id="1" parent="0" />
        <mxCell id="C20UUS9OHr2HWyKI7eno-8" style="edgeStyle=orthogonalEdgeStyle;rounded=0;orthogonalLoop=1;jettySize=auto;html=1;exitX=0.5;exitY=1;exitDx=0;exitDy=0;entryX=0.5;entryY=0;entryDx=0;entryDy=0;" edge="1" parent="1" source="C20UUS9OHr2HWyKI7eno-1" target="C20UUS9OHr2HWyKI7eno-2">
          <mxGeometry relative="1" as="geometry" />
        </mxCell>
        <mxCell id="C20UUS9OHr2HWyKI7eno-1" value="Sākums" style="ellipse;whiteSpace=wrap;html=1;" vertex="1" parent="1">
          <mxGeometry x="300" y="70" width="110" height="60" as="geometry" />
        </mxCell>
        <mxCell id="C20UUS9OHr2HWyKI7eno-17" value="" style="edgeStyle=orthogonalEdgeStyle;rounded=0;orthogonalLoop=1;jettySize=auto;html=1;" edge="1" parent="1" source="C20UUS9OHr2HWyKI7eno-2" target="C20UUS9OHr2HWyKI7eno-15">
          <mxGeometry relative="1" as="geometry" />
        </mxCell>
        <mxCell id="C20UUS9OHr2HWyKI7eno-2" value="Bank account" style="rounded=0;whiteSpace=wrap;html=1;" vertex="1" parent="1">
          <mxGeometry x="302.5" y="160" width="105" height="50" as="geometry" />
        </mxCell>
        <mxCell id="C20UUS9OHr2HWyKI7eno-12" style="edgeStyle=orthogonalEdgeStyle;rounded=0;orthogonalLoop=1;jettySize=auto;html=1;exitX=0.5;exitY=1;exitDx=0;exitDy=0;entryX=0.5;entryY=0;entryDx=0;entryDy=0;" edge="1" parent="1" source="C20UUS9OHr2HWyKI7eno-15" target="C20UUS9OHr2HWyKI7eno-5">
          <mxGeometry relative="1" as="geometry">
            <mxPoint x="358" y="290" as="sourcePoint" />
          </mxGeometry>
        </mxCell>
        <mxCell id="C20UUS9OHr2HWyKI7eno-19" value="2" style="edgeLabel;html=1;align=center;verticalAlign=middle;resizable=0;points=[];" vertex="1" connectable="0" parent="C20UUS9OHr2HWyKI7eno-12">
          <mxGeometry x="-0.3862" y="1" relative="1" as="geometry">
            <mxPoint as="offset" />
          </mxGeometry>
        </mxCell>
        <mxCell id="C20UUS9OHr2HWyKI7eno-13" style="edgeStyle=orthogonalEdgeStyle;rounded=0;orthogonalLoop=1;jettySize=auto;html=1;exitX=1;exitY=0.5;exitDx=0;exitDy=0;entryX=0.5;entryY=0;entryDx=0;entryDy=0;" edge="1" parent="1" source="C20UUS9OHr2HWyKI7eno-15" target="C20UUS9OHr2HWyKI7eno-6">
          <mxGeometry relative="1" as="geometry">
            <mxPoint x="413" y="265" as="sourcePoint" />
          </mxGeometry>
        </mxCell>
        <mxCell id="C20UUS9OHr2HWyKI7eno-18" value="1" style="edgeLabel;html=1;align=center;verticalAlign=middle;resizable=0;points=[];" vertex="1" connectable="0" parent="C20UUS9OHr2HWyKI7eno-13">
          <mxGeometry x="-0.2086" y="-2" relative="1" as="geometry">
            <mxPoint as="offset" />
          </mxGeometry>
        </mxCell>
        <mxCell id="C20UUS9OHr2HWyKI7eno-14" style="edgeStyle=orthogonalEdgeStyle;rounded=0;orthogonalLoop=1;jettySize=auto;html=1;exitX=0;exitY=0.5;exitDx=0;exitDy=0;entryX=0.5;entryY=0;entryDx=0;entryDy=0;" edge="1" parent="1" source="C20UUS9OHr2HWyKI7eno-15" target="C20UUS9OHr2HWyKI7eno-4">
          <mxGeometry relative="1" as="geometry">
            <mxPoint x="303" y="265" as="sourcePoint" />
          </mxGeometry>
        </mxCell>
        <mxCell id="C20UUS9OHr2HWyKI7eno-20" value="3" style="edgeLabel;html=1;align=center;verticalAlign=middle;resizable=0;points=[];" vertex="1" connectable="0" parent="C20UUS9OHr2HWyKI7eno-14">
          <mxGeometry x="-0.2834" relative="1" as="geometry">
            <mxPoint as="offset" />
          </mxGeometry>
        </mxCell>
        <mxCell id="C20UUS9OHr2HWyKI7eno-24" style="edgeStyle=orthogonalEdgeStyle;rounded=0;orthogonalLoop=1;jettySize=auto;html=1;exitX=0.5;exitY=1;exitDx=0;exitDy=0;entryX=0;entryY=0.5;entryDx=0;entryDy=0;" edge="1" parent="1" source="C20UUS9OHr2HWyKI7eno-4" target="C20UUS9OHr2HWyKI7eno-21">
          <mxGeometry relative="1" as="geometry" />
        </mxCell>
        <mxCell id="C20UUS9OHr2HWyKI7eno-4" value="deposit(x) -&amp;gt; balance + x" style="rounded=0;whiteSpace=wrap;html=1;" vertex="1" parent="1">
          <mxGeometry x="150" y="380" width="100" height="50" as="geometry" />
        </mxCell>
        <mxCell id="C20UUS9OHr2HWyKI7eno-22" style="edgeStyle=orthogonalEdgeStyle;rounded=0;orthogonalLoop=1;jettySize=auto;html=1;exitX=0.5;exitY=1;exitDx=0;exitDy=0;entryX=0.5;entryY=0;entryDx=0;entryDy=0;" edge="1" parent="1" source="C20UUS9OHr2HWyKI7eno-5" target="C20UUS9OHr2HWyKI7eno-21">
          <mxGeometry relative="1" as="geometry" />
        </mxCell>
        <mxCell id="C20UUS9OHr2HWyKI7eno-5" value="info() -&amp;gt; izvada owner, balance" style="rounded=0;whiteSpace=wrap;html=1;" vertex="1" parent="1">
          <mxGeometry x="306" y="380" width="107.5" height="50" as="geometry" />
        </mxCell>
        <mxCell id="C20UUS9OHr2HWyKI7eno-23" style="edgeStyle=orthogonalEdgeStyle;rounded=0;orthogonalLoop=1;jettySize=auto;html=1;exitX=0.5;exitY=1;exitDx=0;exitDy=0;entryX=1;entryY=0.5;entryDx=0;entryDy=0;" edge="1" parent="1" source="C20UUS9OHr2HWyKI7eno-6" target="C20UUS9OHr2HWyKI7eno-21">
          <mxGeometry relative="1" as="geometry" />
        </mxCell>
        <mxCell id="C20UUS9OHr2HWyKI7eno-6" value="withdraw(x) -&amp;gt; balance - x (ja pietiek)" style="rounded=0;whiteSpace=wrap;html=1;" vertex="1" parent="1">
          <mxGeometry x="460" y="380" width="100" height="50" as="geometry" />
        </mxCell>
        <mxCell id="C20UUS9OHr2HWyKI7eno-15" value="izvēle" style="rhombus;whiteSpace=wrap;html=1;" vertex="1" parent="1">
          <mxGeometry x="315" y="230" width="80" height="80" as="geometry" />
        </mxCell>
        <mxCell id="C20UUS9OHr2HWyKI7eno-21" value="Beigums" style="ellipse;whiteSpace=wrap;html=1;" vertex="1" parent="1">
          <mxGeometry x="306" y="480" width="107.5" height="60" as="geometry" />
        </mxCell>
      </root>
    </mxGraphModel>
  </diagram>
</mxfile>
